<svg preserveAspectRatio="xMidYMid meet" width="119" height="26" overflow="visible" style="display: block;" viewBox="0 0 119 26" fill="none" xmlns="http://www.w3.org/2000/svg">
<g id="Privy_Brandmark_Black 1" clip-path="url(#clip0_0_6)">
<path id="Vector" fill-rule="evenodd" clip-rule="evenodd" d="M87.2923 13.812H86.9312L82.2324 0.605957H76.7289V1.15196L83.3571 19.594H90.6663L97.2966 1.15196V0.605957H92.0324L87.2903 13.812H87.2923Z" fill="var(--fill-0, #010110)"/>
<path id="Vector_2" d="M75.2637 0.605957H69.7911V19.592H75.2637V0.605957Z" fill="var(--fill-0, #010110)"/>
<path id="Vector_3" fill-rule="evenodd" clip-rule="evenodd" d="M113.554 0.60405H113.558L108.816 13.8141H108.454L103.756 0.60605H98.2521V1.15605L105.452 21.1921H98.6338V25.5901H105.297C108.143 25.5901 110.359 24.6601 111.434 21.6921C111.579 21.2961 118.818 1.15205 118.818 1.15205V0.60205H113.554V0.60405Z" fill="var(--fill-0, #010110)"/>
<path id="Vector_4" fill-rule="evenodd" clip-rule="evenodd" d="M41.9018 0.0900067C39.4131 0.0900067 37.0874 1.31801 35.6367 3.626H35.3004V0.626007H30.0836V25.584H35.6264V17.176H35.9669C36.004 17.226 36.0412 17.278 36.0783 17.32C37.0131 18.422 39.1964 20.102 41.9121 20.102C46.8544 20.102 50.2345 15.962 50.2345 10.098C50.2345 4.234 46.6872 0.0900067 41.9018 0.0900067ZM40.2468 15.986C37.6673 15.986 35.8864 14.038 35.8864 10.1C35.8864 6.162 37.6673 4.214 40.2468 4.214C42.8262 4.214 44.6938 6.204 44.6938 10.1C44.6938 13.996 42.8696 15.986 40.2468 15.986Z" fill="var(--fill-0, #010110)"/>
<path id="Vector_5" fill-rule="evenodd" clip-rule="evenodd" d="M63.9821 0.604003C61.4129 0.604003 59.7641 1.02 58.8004 3.626H58.4703V0.606003H50.5358V4.966H52.3063C52.8903 4.966 53.1772 5.166 53.2515 5.63V9.254H53.2721V19.594H58.8149V9.522C58.8149 6.914 59.5454 5.316 62.2363 5.316H68.0432V0.604003H63.9842H63.9821Z" fill="var(--fill-0, #010110)"/>
<path id="Vector_6" d="M10.5002 20.096C16.1978 20.096 20.8181 15.618 20.8181 10.096C20.8181 4.57403 16.1978 0.0960287 10.5002 0.0960287C4.80265 0.0960287 0.182293 4.57403 0.182293 10.096C0.182293 15.618 4.80265 20.096 10.5002 20.096Z" fill="var(--fill-0, #010110)"/>
<path id="Vector_7" d="M10.5002 25.91C14.3942 25.91 17.5515 25.266 17.5515 24.476C17.5515 23.686 14.3962 23.042 10.5002 23.042C6.60416 23.042 3.44894 23.686 3.44894 24.476C3.44894 25.266 6.60416 25.91 10.5002 25.91Z" fill="var(--fill-0, #010110)"/>
</g>
<defs>
<clipPath id="clip0_0_6">
<rect width="119" height="26" fill="white"/>
</clipPath>
</defs>
</svg>
