<svg preserveAspectRatio="none" width="100%" height="100%" overflow="visible" style="display: block;" viewBox="0 0 26 26" fill="none" xmlns="http://www.w3.org/2000/svg">
<g id="reflector-logo-white 1">
<path id="Vector (Stroke)" d="M9.59839 0.934564C11.0936 0.600961 12.8379 0.766519 14.1195 2.11761C14.7334 2.76474 15.1842 3.62718 15.4567 4.71578C15.6891 4.32965 15.9238 4.0029 16.1674 3.74588C16.5585 3.33326 17.1139 2.95894 17.8213 3.03465C18.4677 3.10383 18.9353 3.52584 19.2427 3.87393C19.5695 4.24406 19.8829 4.72748 20.1897 5.23371C20.4893 5.72833 20.8546 6.36841 21.2171 6.97674C21.9733 8.24594 22.9012 9.69516 24.1518 11.1068L22.6313 12.4537C21.2566 10.9019 20.2529 9.32701 19.4721 8.01647C19.066 7.33491 18.7614 6.79614 18.4525 6.28623C18.1506 5.78796 17.9167 5.44107 17.72 5.21834C17.6923 5.18696 17.6675 5.16081 17.6458 5.13889C17.6445 5.1403 17.6431 5.14172 17.6418 5.14316C17.454 5.34124 17.1924 5.72445 16.8473 6.39851C16.5092 7.0589 16.12 7.94007 15.6597 9.08595L15.5461 9.36852L15.2959 9.54199L15.2806 9.5526L13.5402 10.7591L13.6889 8.64657C13.8959 5.70525 13.3108 4.21668 12.6458 3.51558C12.0191 2.85501 11.1072 2.67909 10.0407 2.91702C8.96162 3.15778 7.90934 3.79517 7.28278 4.46694C6.96683 4.80569 6.82435 5.08313 6.78439 5.25097C6.7598 5.35428 6.7768 5.36449 6.78796 5.37187L6.78856 5.37138L20.6458 19.1903L20.6456 19.1904C21.2322 19.7689 21.3787 20.5141 21.2264 21.2109C21.0852 21.8567 20.6987 22.4453 20.2506 22.9298C19.3491 23.9047 17.9279 24.7508 16.439 25.0788C14.9373 25.4096 13.1862 25.2396 11.8975 23.8894C11.2773 23.2395 10.8214 22.3731 10.546 21.2791C10.3126 21.6674 10.0771 21.9959 9.83246 22.2541C9.4414 22.6667 8.88601 23.041 8.1786 22.9653C7.53217 22.8961 7.06456 22.4741 6.75722 22.126C6.4304 21.7559 6.11694 21.2725 5.81023 20.7662C5.51056 20.2716 5.14524 19.6315 4.7828 19.0232C4.0266 17.754 3.09871 16.3048 1.8482 14.8933L3.36866 13.5463C4.74332 15.098 5.74697 16.6729 6.52781 17.9835C6.93389 18.665 7.23855 19.2037 7.5475 19.7136C7.8494 20.2119 8.0832 20.5589 8.27986 20.7816C8.30752 20.8129 8.33228 20.8391 8.35395 20.8609C8.35529 20.8595 8.35675 20.8582 8.35812 20.8568C8.54584 20.6587 8.8074 20.2755 9.15247 19.6014C9.49054 18.941 9.87992 18.0599 10.3402 16.914L10.4545 16.629L10.7076 16.4553L10.7229 16.4449L12.4587 15.2529L12.3109 17.3534C12.1041 20.292 12.6946 21.7824 13.367 22.4869C14.0034 23.1537 14.9286 23.3316 16.002 23.0951C17.0881 22.8558 18.1407 22.2194 18.7593 21.5506C19.0714 21.2132 19.2065 20.9396 19.2421 20.777C19.2658 20.6682 19.2458 20.6623 19.2184 20.6355L19.2149 20.6321L19.2114 20.6287L5.35429 6.80962L5.3523 6.80773L5.35042 6.80585C4.76703 6.21786 4.64526 5.4658 4.80839 4.78055C4.95975 4.14475 5.34822 3.56298 5.79733 3.08146C6.70097 2.11262 8.11585 1.26534 9.59839 0.934564Z" fill="var(--fill-0, #010110)"/>
</g>
</svg>
